PathFileType	4	(x/y/z)	S06_P20_T09
DataRate	CameraRate	NumFrames	NumMarkers	Units	OrigDataRate	OrigDataStartFrame	OrigNumFrames
240	240	7	51	mm	240	84	332
Frame#	Time	Sternum			R.Acromium			L.Acromium			Top.Head			R.ASIS			L.ASIS			R.PSIS			L.PSIS			R.Great.Tro			L.Great.Tro			R.Iliac.Crest			L.Iliac.Crest			V.Sacral			R.Thigh.Upper.Post			R.Thigh.Lower.Ant			R.Thigh.Lower.Post			R.Thigh.Upper.Ant			R.Knee.Lat			R.Knee.Med			R.Shank.Upper.Post			R.Shank.Lower.Ant			R.Shank.Lower.Post			R.Shank.Upper.Ant			R.Ankle.Lat			R.Ankle.Med			R.Heel.Upper			R.Heel.Med			R.Heel.Lat			R.Toe.Lat			R.Toe.Med			R.Toe.Tip			L.Thigh.Upper.Post			L.Thigh.Lower.Ant			L.Thigh.Lower.Post			L.Thigh.Upper.Ant			L.Knee.Lat			L.Knee.Med			L.Shank.Upper.Post			L.Shank.Lower.Ant			L.Shank.Lower.Post			L.Shank.Upper.Ant			L.Ankle.Lat			L.Ankle.Med			L.Heel.Upper			L.Heel.Med			L.Heel.Lat			L.Toe.Lat			L.Toe.Med			L.Toe.Tip			Cervical.Spine			Back			
		X1	Y1	Z1	X2	Y2	Z2	X3	Y3	Z3	X4	Y4	Z4	X5	Y5	Z5	X6	Y6	Z6	X7	Y7	Z7	X8	Y8	Z8	X9	Y9	Z9	X10	Y10	Z10	X11	Y11	Z11	X12	Y12	Z12	X13	Y13	Z13	X14	Y14	Z14	X15	Y15	Z15	X16	Y16	Z16	X17	Y17	Z17	X18	Y18	Z18	X19	Y19	Z19	X20	Y20	Z20	X21	Y21	Z21	X22	Y22	Z22	X23	Y23	Z23	X24	Y24	Z24	X25	Y25	Z25	X26	Y26	Z26	X27	Y27	Z27	X28	Y28	Z28	X29	Y29	Z29	X30	Y30	Z30	X31	Y31	Z31	X32	Y32	Z32	X33	Y33	Z33	X34	Y34	Z34	X35	Y35	Z35	X36	Y36	Z36	X37	Y37	Z37	X38	Y38	Z38	X39	Y39	Z39	X40	Y40	Z40	X41	Y41	Z41	X42	Y42	Z42	X43	Y43	Z43	X44	Y44	Z44	X45	Y45	Z45	X46	Y46	Z46	X47	Y47	Z47	X48	Y48	Z48	X49	Y49	Z49	X50	Y50	Z50	X51	Y51	Z51	

84	0.34583	-847.89	1287.9	307.14	-967.97	1500	474.37	-970.27	1502.9	123.8	-896.9	1815	298.2	-913.09	1058.8	431.81	-905.13	1048.7	177.92	NaN	NaN	NaN	-1110.4	1087.6	255.8	-962.71	992.41	484.47	-1007.3	986.43	124.34	-999.94	1135.1	461.28	-974.35	1126	141.09	-1123.3	1050.1	299	-875.36	756.43	476.47	-796.18	700.41	441.11	-856.6	670.78	459.16	-813.58	789.58	453.75	-798.86	573.28	446.57	-795.45	576.87	318.64	-831.33	347.91	447.95	-767.54	286.48	432.2	-832.04	270.91	434.73	-768.95	362.11	443.36	-790.81	135.54	413.68	-770.48	142.16	327.78	-848.83	86.459	361.08	-831.24	58.239	332.13	-837.42	56.82	396.49	-666.52	75.139	449.76	-633.65	89.78	332.99	-576.22	114.27	383.4	-971.04	719.39	149.82	-929.42	637.46	213.26	-994.98	634.74	169.33	-906.19	727.04	188.33	-1023.7	540.27	189.93	-997.69	546.79	309.02	-1113.7	324.02	204.13	-1061.4	251.87	209.05	-1133	255.2	222.84	-1046.9	319.89	195.61	-1119.4	109.21	227.72	-1111	113.57	317.55	-1198.4	76.521	268.52	-1196	47.868	299.65	-1191.3	52.048	237.95	-1013	43.589	205.13	-999.57	43.069	326.32	-921.89	52.957	273.93	-1021.2	1554.8	299.24	-1091.3	1286.1	296.45
85	0.35	-842.35	1287.4	307.06	-962.46	1499.4	474.44	-964.72	1502.4	123.83	-891.68	1814.6	298.36	-907.34	1058.3	431.79	-899.59	1048	177.89	NaN	NaN	NaN	-1105	1087	255.99	-957.13	991.76	484.45	-1002	985.85	124.5	-994.2	1134.7	461.36	-968.79	1125.3	141.12	-1117.6	1049.6	299.26	-871.71	755.29	476.59	-792.55	698.68	440.88	-853.19	669.46	459.06	-809.35	787.95	453.66	-795.29	571.97	446.04	-792.41	575.38	318.09	-822.47	345.88	447.43	-757.16	285.99	431.6	-821.29	268.86	434.14	-760.48	361.61	442.84	-776.46	134.22	412.97	-756.01	141.6	327.2	-833.18	83.818	360.27	-814.84	56.07	331.29	-821.02	54.348	395.59	-650.55	76.724	448.88	-618.13	92.648	332.31	-561.28	118.48	382.8	-967.27	719.02	150.07	-926.1	636.79	213.35	-991.75	634.51	169.53	-902.26	726.24	188.38	-1021	540.1	190.07	-994.95	546.46	309.22	-1112.3	324.24	204.37	-1060.3	251.85	209.23	-1131.9	255.56	223.09	-1045.5	319.78	195.77	-1119.1	109.45	228	-1110.6	113.7	317.79	-1198.3	76.76	268.78	-1195.9	47.996	299.85	-1191.2	52.309	238.16	-1013	43.629	205.24	-999.18	42.766	326.39	-921.74	52.516	274.03	-1015.7	1554.3	299.3	-1085.5	1285.5	296.44
86	0.35417	-836.81	1286.9	306.99	-956.95	1498.8	474.51	-959.19	1501.9	123.87	-886.45	1814.2	298.53	-901.58	1057.8	431.78	-894.02	1047.3	177.87	NaN	NaN	NaN	-1099.6	1086.5	256.19	-951.54	991.06	484.43	-996.62	985.25	124.68	-988.45	1134.2	461.45	-963.21	1124.7	141.17	-1111.8	1049	299.54	-868.11	754.11	476.75	-788.94	696.92	440.64	-849.8	668.11	458.95	-805.13	786.28	453.58	-791.75	570.64	445.5	-789.41	573.87	317.52	-813.79	343.96	446.91	-747.05	285.6	431.01	-810.76	266.97	433.55	-752.2	361.17	442.33	-762.44	133.1	412.27	-741.91	141.26	326.63	-817.87	81.433	359.48	-798.81	54.184	330.45	-804.97	52.133	394.7	-635.01	78.454	448	-603.05	95.677	331.64	-546.79	122.8	382.2	-963.39	718.64	150.33	-922.7	636.1	213.41	-988.44	634.27	169.73	-898.28	725.44	188.43	-1018.3	539.91	190.2	-992.09	546.1	309.41	-1110.8	324.48	204.61	-1059.2	251.84	209.4	-1130.8	255.93	223.33	-1044	319.67	195.92	-1118.8	109.72	228.28	-1110.2	113.85	318.04	-1198.2	77.014	269.05	-1195.8	48.144	300.07	-1191.1	52.581	238.38	-1012.9	43.669	205.35	-998.75	42.464	326.44	-921.6	52.078	274.14	-1010.2	1553.8	299.36	-1079.8	1284.9	296.44
87	0.35833	-831.25	1286.3	306.92	-951.43	1498.2	474.58	-953.67	1501.4	123.9	-881.22	1813.7	298.71	-895.81	1057.3	431.81	-888.43	1046.6	177.88	NaN	NaN	NaN	-1094.2	1086	256.39	-945.92	990.34	484.41	-991.23	984.63	124.87	-982.69	1133.7	461.55	-957.61	1123.9	141.23	-1106	1048.4	299.82	-864.56	752.92	476.93	-785.34	695.16	440.41	-846.4	666.75	458.84	-800.94	784.61	453.53	-788.23	569.31	444.96	-786.41	572.36	316.93	-805.31	342.15	446.37	-737.19	285.3	430.42	-800.48	265.23	432.94	-744.12	360.78	441.83	-748.78	132.17	411.6	-728.21	141.09	326.08	-802.93	79.296	358.71	-783.18	52.566	329.6	-789.3	50.166	393.83	-619.92	80.304	447.12	-588.46	98.827	330.98	-532.78	127.19	381.61	-959.41	718.25	150.58	-919.2	635.41	213.47	-985.05	634.01	169.92	-894.23	724.62	188.45	-1015.5	539.71	190.32	-989.13	545.73	309.6	-1109.3	324.73	204.84	-1058	251.84	209.56	-1129.6	256.32	223.56	-1042.5	319.57	196.07	-1118.5	110.01	228.55	-1109.8	114.03	318.27	-1198.1	77.285	269.32	-1195.7	48.316	300.3	-1191	52.868	238.61	-1012.8	43.71	205.47	-998.31	42.17	326.49	-921.44	51.642	274.24	-1004.7	1553.3	299.43	-1074	1284.2	296.46
88	0.3625	-825.68	1285.7	306.85	-945.89	1497.6	474.66	-948.15	1500.9	123.94	-875.99	1813.3	298.91	-890.05	1056.7	431.85	-882.8	1045.9	177.91	NaN	NaN	NaN	-1088.8	1085.4	256.6	-940.27	989.6	484.4	-985.81	983.99	125.08	-976.93	1133.2	461.67	-951.99	1123.2	141.31	-1100.2	1047.8	300.12	-861.02	751.72	477.13	-781.73	693.4	440.17	-842.99	665.38	458.71	-796.74	782.93	453.5	-784.72	567.99	444.41	-783.4	570.87	316.32	-797.03	340.46	445.83	-727.62	285.08	429.85	-790.46	263.63	432.33	-736.26	360.44	441.35	-735.51	131.42	410.96	-714.93	141.1	325.55	-788.4	77.393	357.96	-768	51.196	328.76	-774.06	48.435	392.98	-605.32	82.248	446.24	-574.35	102.06	330.33	-519.27	131.61	381.04	-955.31	717.85	150.85	-915.61	634.71	213.52	-981.57	633.74	170.12	-890.12	723.8	188.47	-1012.6	539.5	190.45	-986.05	545.35	309.78	-1107.7	325	205.06	-1056.8	251.84	209.72	-1128.3	256.74	223.79	-1040.9	319.47	196.22	-1118.1	110.33	228.81	-1109.4	114.25	318.51	-1198	77.58	269.61	-1195.6	48.518	300.53	-1190.9	53.175	238.85	-1012.8	43.751	205.6	-997.87	41.889	326.54	-921.29	51.208	274.34	-999.23	1552.7	299.5	-1068.3	1283.6	296.49
89	0.36667	-820.09	1285.1	306.8	-940.36	1496.9	474.75	-942.64	1500.4	123.99	-870.75	1812.8	299.11	-884.29	1056.1	431.92	-877.15	1045.1	177.95	NaN	NaN	NaN	-1083.5	1084.8	256.83	-934.6	988.84	484.41	-980.34	983.34	125.3	-971.16	1132.7	461.81	-946.35	1122.5	141.41	-1094.5	1047.2	300.42	-857.49	750.52	477.33	-778.1	691.66	439.94	-839.55	664.01	458.56	-792.54	781.26	453.49	-781.2	566.68	443.87	-780.35	569.42	315.7	-788.95	338.87	445.27	-718.32	284.92	429.29	-780.72	262.17	431.7	-728.6	360.15	440.87	-722.65	130.82	410.33	-702.1	141.25	325.04	-774.32	75.711	357.23	-753.29	50.052	327.93	-759.28	46.925	392.15	-591.22	84.259	445.38	-560.78	105.34	329.7	-506.28	136.01	380.48	-951.12	717.44	151.11	-911.94	634	213.55	-978	633.45	170.33	-885.94	722.98	188.47	-1009.6	539.27	190.56	-982.85	544.94	309.95	-1106	325.29	205.29	-1055.6	251.86	209.86	-1127	257.18	224.01	-1039.3	319.37	196.36	-1117.8	110.68	229.06	-1109	114.5	318.73	-1197.9	77.904	269.9	-1195.5	48.756	300.78	-1190.8	53.508	239.09	-1012.7	43.791	205.73	-997.43	41.626	326.59	-921.12	50.778	274.44	-993.72	1552.2	299.58	-1062.6	1282.9	296.53
90	0.37083	-814.49	1284.5	306.75	-934.81	1496.2	474.84	-937.13	1499.8	124.03	-865.51	1812.3	299.32	-878.52	1055.5	432.02	-871.48	1044.4	178.02	NaN	NaN	NaN	-1078.1	1084.2	257.05	-928.9	988.07	484.42	-974.84	982.67	125.54	-965.39	1132.1	461.96	-940.69	1121.7	141.53	-1088.7	1046.5	300.72	-853.92	749.32	477.53	-774.43	689.96	439.7	-836.06	662.66	458.39	-788.32	779.62	453.5	-777.65	565.4	443.33	-777.23	568.01	315.06	-781.09	337.39	444.69	-709.32	284.81	428.74	-771.27	260.83	431.06	-721.14	359.88	440.4	-710.23	130.37	409.72	-689.74	141.51	324.53	-760.71	74.232	356.51	-739.1	49.112	327.1	-745	45.617	391.33	-577.66	86.309	444.53	-547.74	108.62	329.07	-493.82	140.35	379.94	-946.83	717.03	151.38	-908.16	633.28	213.58	-974.34	633.15	170.53	-881.7	722.14	188.46	-1006.6	539.04	190.68	-979.54	544.53	310.12	-1104.3	325.6	205.5	-1054.3	251.89	210	-1125.7	257.64	224.23	-1037.6	319.29	196.5	-1117.4	111.05	229.31	-1108.5	114.79	318.95	-1197.7	78.264	270.19	-1195.3	49.039	301.04	-1190.7	53.874	239.35	-1012.6	43.831	205.87	-997.01	41.383	326.64	-920.95	50.351	274.53	-988.2	1551.6	299.66	-1056.9	1282.2	296.58
